<?xml version="1.0" encoding="utf-8"?>
<!-- Generator: Adobe Illustrator 23.0.0, SVG Export Plug-In . SVG Version: 6.00 Build 0)  -->
<svg version="1.1" xmlns="http://www.w3.org/2000/svg" xmlns:xlink="http://www.w3.org/1999/xlink" x="0px" y="0px"
	 viewBox="0 0 512 512" style="enable-background:new 0 0 512 512;" xml:space="preserve">
<style type="text/css">
	.st0{fill:#FFFFFF;}
	.st1{fill:#FF0000;}
</style>
<g id="circle">
	<g>
		<path class="st0" d="M345.53,51.81c-52.55-23.86-113.91-19.39-169.63-4.33c-27.78,7.51-55.36,17.76-78.16,35.33
			c-26.48,20.4-45.15,49.85-55.97,81.48s-14.15,65.42-13.62,98.84c0.83,52.21,12.22,106.9,46.76,146.06
			c25.45,28.86,61.29,46.73,98.01,58.23c28.96,9.07,59.22,14.62,89.55,13.89c36.47-0.87,72.55-10.9,104.87-27.82
			c24.14-12.63,46.62-29.45,62.14-51.84c13.21-19.06,20.87-41.33,28.37-63.27c5.45-15.96,10.92-31.97,14.55-48.44
			c11.68-52.99,3.39-110.14-22.87-157.62c-12.98-23.47-30.53-44.89-53.17-59.27c-22.64-14.38-50.71-21.2-76.89-15.34"/>
		<g>
			<path d="M352.25,40.31c-2.75-1.59-5.52-3.12-8.34-4.57c-3.08-1.58-6.26-3-8.53-3.99c-7.46-3.22-11.84-4.96-19.9-7.57
				c-12.4-4.01-25.76-5.32-38.74-6.15c-26.13-1.67-52.48,1.05-78.14,5.97c-49.23,9.44-100.43,27.6-134.12,66.5
				C30.17,130.12,15.5,181.88,12.3,233.39c-3.04,48.93,1.95,99.52,22.56,144.46c9.86,21.49,24.17,41.28,41.95,56.92
				c19.01,16.73,40.77,29.11,64.04,38.85c49.53,20.73,103.28,29.98,156.61,21.74c26.38-4.08,51.9-12.85,75.77-24.71
				c21.78-10.82,42.43-25.53,58.78-43.61c18.39-20.34,29.51-44.75,38.74-70.31c8.87-24.57,17.91-49.45,22.21-75.3
				c8.57-51.52,1.12-104.73-22.44-151.46c-23.61-46.82-64.06-86.12-117.85-92.74c-12.81-1.58-25.64-0.7-38.24,2.12
				c-9.72,2.18-16.35,13.96-13.29,23.41c3.36,10.37,12.94,15.41,23.41,13.29c1.64-0.33,3.29-0.64,4.94-0.9
				c-0.76,0.12-3.81,0.33-0.11,0.08c2.78-0.19,5.53-0.39,8.32-0.39c2.78,0,5.56,0.12,8.33,0.36c1.11,0.1,2.22,0.21,3.32,0.35
				c-4.66-0.56,1.34,0.31,2.28,0.49c5.22,1.03,10.35,2.44,15.37,4.2c1.32,0.46,2.62,1.01,3.94,1.47c3.08,1.07-4.1-1.97,0.74,0.32
				c2.79,1.32,5.55,2.67,8.26,4.17c4.61,2.56,8.94,5.48,13.23,8.54c4.41,3.14-2.93-2.61,1.16,0.92c0.82,0.71,1.68,1.39,2.51,2.1
				c2.48,2.13,4.93,4.32,7.29,6.58c3.56,3.4,6.95,6.97,10.17,10.69c1.08,1.24,2.1,2.52,3.17,3.77c0.5,0.59,2.26,2.93-0.01-0.09
				c1.98,2.63,3.89,5.32,5.73,8.05c6.23,9.27,11.69,19.07,16.37,29.21c0.48,1.04,0.93,2.09,1.41,3.12c2.39,5.14-1.39-3.67,0.7,1.6
				c0.95,2.39,1.91,4.77,2.82,7.17c2.12,5.61,4.02,11.3,5.69,17.06c1.59,5.48,2.97,11.03,4.15,16.61c0.53,2.51,1.01,5.04,1.46,7.57
				c0.25,1.41,0.48,2.81,0.7,4.22c0.08,0.49,0.79,6.13,0.27,1.66c1.33,11.37,2,22.75,1.76,34.2c-0.12,5.7-0.45,11.4-1.01,17.08
				c-0.11,1.13-0.23,2.27-0.36,3.4c-0.06,0.49-0.85,6.1-0.21,1.82c-0.46,3.11-0.96,6.21-1.55,9.3c-2.32,12.14-5.79,24.04-9.56,35.8
				c-3.81,11.89-7.75,23.76-12,35.5c-0.91,2.52-1.85,5.04-2.81,7.54c-0.54,1.39-1.09,2.77-1.64,4.15c-1.33,3.37-0.54,1.35-0.23,0.62
				c-2.54,6.01-5.39,11.9-8.58,17.59c-2.71,4.84-5.87,9.29-8.92,13.91c-1.7,2.58,2.59-3.09-0.68,0.9c-0.69,0.84-1.37,1.68-2.07,2.51
				c-2.1,2.49-4.28,4.91-6.56,7.24c-3.62,3.69-7.45,7.16-11.43,10.46c-1.05,0.87-2.11,1.72-3.17,2.57c2.37-1.91,0.19-0.14-0.27,0.19
				c-2.65,1.93-5.3,3.85-8.03,5.67c-9.29,6.22-19.12,11.65-29.16,16.54c-2.69,1.31-5.4,2.57-8.13,3.78
				c-1.09,0.48-2.19,0.97-3.29,1.43c3.1-1.3-2.36,0.92-2.38,0.93c-5.57,2.19-11.22,4.18-16.94,5.96
				c-11.44,3.57-23.09,6.13-34.91,8.07c-5.76,0.94,3.34-0.32-2.47,0.34c-1.19,0.13-2.38,0.27-3.57,0.4
				c-2.97,0.31-5.95,0.56-8.94,0.74c-6.49,0.39-12.99,0.46-19.49,0.27c-6-0.17-11.98-0.58-17.95-1.2c-1.57-0.16-3.14-0.34-4.71-0.53
				c-3.54-0.43,4.06,0.65-1.98-0.26c-3.75-0.57-7.49-1.18-11.22-1.88c-12.43-2.34-24.75-5.39-36.85-9.07
				c-4.94-1.5-9.84-3.11-14.71-4.84c-2.31-0.82-4.6-1.69-6.88-2.58c-1.52-0.6-3.04-1.21-4.55-1.83c2.65,1.09-1.51-0.65-1.99-0.87
				c-9.94-4.39-19.61-9.39-28.82-15.14c-4.58-2.86-9.04-5.91-13.35-9.16c0.57,0.43,2.14,1.73-0.43-0.35
				c-1.05-0.84-2.09-1.69-3.12-2.56c-2.27-1.9-4.49-3.87-6.65-5.89c-3.94-3.68-7.69-7.58-11.21-11.66c-0.69-0.8-1.38-1.62-2.06-2.44
				c-0.12-0.15-3.36-4.25-1.32-1.59c-1.6-2.1-3.13-4.25-4.62-6.43c-5.94-8.73-10.89-18.02-15.2-27.65
				c-2.11-4.73,1.09,3.01-0.76-1.84c-0.38-0.99-0.78-1.97-1.15-2.96c-0.95-2.48-1.84-4.97-2.69-7.49
				c-1.79-5.3-3.37-10.67-4.76-16.09c-1.27-4.93-2.37-9.9-3.34-14.9c-0.51-2.64-0.98-5.29-1.41-7.94c-0.17-1.06-0.34-2.13-0.5-3.19
				c-0.16-1.06-0.32-2.13-0.47-3.2c0.24,1.79,0.23,1.68-0.03-0.34c-1.27-10.69-2.21-21.38-2.58-32.14
				c-0.42-12.13-0.25-24.28,0.57-36.4c0.89-13.03,1.95-21.7,4.53-34.24c2.43-11.81,5.67-23.44,10.07-34.67
				c-0.13,0.33,1.87-4.6,1-2.51c-0.87,2.08,1.23-2.78,1.09-2.46c1.11-2.46,2.26-4.9,3.47-7.32c2.42-4.83,5.05-9.55,7.85-14.17
				c2.8-4.62,5.82-9.08,8.98-13.46c1.96-2.72,0.69-0.96,0.25-0.38c0.99-1.28,2.01-2.53,3.04-3.77c1.72-2.07,3.49-4.09,5.31-6.06
				c3.64-3.95,7.49-7.72,11.53-11.26c1.01-0.89,2.04-1.76,3.07-2.61c0.58-0.48,3.33-2.67,0.91-0.8c2.5-1.93,5.09-3.75,7.72-5.49
				c4.53-3.02,9.23-5.79,14.04-8.35c2.53-1.35,5.1-2.64,7.7-3.87c1.04-0.49,2.08-0.98,3.13-1.45c1.05-0.48,2.1-0.94,3.16-1.4
				c-1.29,0.53-1.37,0.56-0.23,0.09c10.93-4.52,22.22-8.16,33.61-11.32c11.27-3.13,22.61-5.98,34.1-8.2
				c5.49-1.06,11.01-1.9,16.53-2.8c3.31-0.54-4.17,0.48,1.44-0.2c1.17-0.14,2.34-0.29,3.5-0.42c3.5-0.4,7.01-0.74,10.53-1.01
				c11.64-0.91,23.34-1.12,34.99-0.46c2.89,0.16,5.78,0.38,8.67,0.65c1.15,0.11,2.3,0.23,3.45,0.35c0.19,0.02,5.84,0.76,2.26,0.25
				c2.57,0.37,5.13,0.83,7.69,1.25c2.38,0.4,4.77,0.65,7.16,0.92c0.04,0,5.33,0.68,2.36,0.26c11.09,1.56,21.49,4.03,33.66,8.04
				C356.47,69.41,365.17,47.78,352.25,40.31L352.25,40.31z"/>
		</g>
	</g>
</g>
<g id="red">
	<g>
		<g>
			<g>
				<path class="st1" d="M312.89,114.67c2.04,2.63-0.95-1.52-1.13-1.69c-1.46-1.46-3.45-2.58-5.44-3.17
					c-3.22-0.96-6.25-0.72-9.51-0.2c-4.9,0.77-9.5,2.65-13.49,5.61c-9.61,7.11-13.33,17.34-16.72,28.37
					c-2.9,9.42-6.73,18.63-9.09,28.2c-2.72,11-2.87,22.45-2.77,33.71c0.18,20.55-0.16,41.87-3.56,62.18
					c-1.78,10.65-5.61,20.95-9.1,31.12c-3.37,9.8-6.89,19.58-10.64,29.23c-3.91,10.05-8.55,19.95-13.7,29.63
					c-2.54,4.77-5.16,9.54-8.29,13.95c-1.81,2.54-0.73,0.88-0.29,0.39c-0.98,1.09-1.94,2.17-3.05,3.13
					c1.66-1.42,0.26,0.26-0.26-0.02c0.41-0.16,0.82-0.31,1.23-0.47c-1.78,0.45-1.76,0.5,0.05,0.15c-8.15,0.56-16.05,6.8-15.66,15.66
					c0.36,8,6.91,16.26,15.66,15.66c23.91-1.64,33.55-25.05,42.03-44.16c8.73-19.67,15.88-40.28,21.47-61.06
					c5.73-21.26,8.77-43.85,9.52-65.82c0.69-20.14-2.13-41.72,4.12-61.16c3.36-10.46,6.73-21.6,11.13-31.47
					c-0.32,0.72,1.04-2.11,1.11-2.22c0.15-0.28,1.99-2.98,1.1-1.9c1.81-2.2,1.63-1.75,4.01-2.98c2.57-1.33,1.22-0.57,0.72-0.39
					c2.08-0.74,3.69-0.93,5.78-2.03c3.76-1.96,5.45-4.46,6.99-8.32c-0.95,1.62-1.89,3.25-2.84,4.87c0.21-0.24,0.42-0.49,0.64-0.73
					C316.77,124.3,316.38,119.16,312.89,114.67L312.89,114.67z"/>
			</g>
		</g>
		<g>
			<g>
				<g>
					<path class="st1" d="M393.31,133.25c-5.73,3.14-6.72,8.48-7.92,14.35c-1.21,5.9-2.84,11.94-5.06,17.54
						c-4.44,11.2-9.58,22.08-15.3,32.69c-5.34,9.9-11.64,18.94-19.67,26.84c-8.27,8.13-17.48,14.12-27.38,20.09
						c-6.24,3.76-8.56,12.12-4.84,18.47c4.03,6.89,11.77,7.79,18.47,4.84c26.57-11.67,44.14-35.62,56.73-60.76
						c6.48-12.93,13.39-25.98,16.24-40.25c1.44-7.23,2.13-14.76,1.44-22.13C405.53,139.78,400.08,129.54,393.31,133.25
						L393.31,133.25z"/>
				</g>
			</g>
			<g>
				<g>
					<path class="st1" d="M314.1,264.88c8.85,7.75,15.95,15.4,22.37,24.45c7.77,10.95,14.38,18.45,21.47,28.97
						c3.28,4.87,6.3,9.93,8.86,15.22c2.38,4.92,3.64,8.26,5.98,14.38c2.26,5.92,4.32,11.92,5.62,18.13
						c0.09,0.44,0.85,4.25,0.41,1.65c0.4,2.39,0.48,4.83,0.94,7.21c1.15,5.88,4.09,9.68,9,13.07c3.99,2.75,11.38,3.01,15.33,0
						c5.74-4.37,9.04-9.36,9.2-16.71c0.09-4.14-0.78-8.49-1.64-12.53c-1.38-6.5-3.65-12.77-6.16-18.91
						c-5.41-13.22-11.04-26.3-19.2-38.09c-7.79-11.26-16.53-21.97-25.7-32.13c-9.89-10.96-20.95-19.54-34.81-24.79
						C314.6,240.58,305.34,257.2,314.1,264.88L314.1,264.88z"/>
				</g>
			</g>
		</g>
		<g>
			<g>
				<path class="st1" d="M109.41,137.76c-4.23,12.36-1.12,26.24,0.69,38.81c1.76,12.27,5.51,24.32,11.42,35.27
					c5.92,10.96,14.57,20.41,22.76,29.7c8.5,9.65,17.46,18.77,26.93,27.46c0-8.13,0-16.26,0-24.38
					c-20.22,15.87-37.55,36.27-48.68,59.47c-12.17,25.37-22.06,51.96-23.76,80.27c-0.52,8.63,7.96,16.88,16.5,16.5
					c9.45-0.42,15.86-7.26,16.5-16.5c0.11-1.53,0.22-3.07,0.38-4.6c0.06-0.63,0.53-4.09,0.22-1.99c0.45-3.03,1.04-6.04,1.69-9.04
					c1.31-6.01,2.97-11.94,4.89-17.78c3.98-12.06,7.53-20.49,13.03-31.74c2.65-5.41,5.52-10.73,8.8-15.78
					c0.66-1.01,1.33-2.01,2.02-3c-0.04,0.06,3.01-4.09,1.5-2.14c1.57-2.03,3.26-3.97,4.97-5.88c3.8-4.24,7.82-8.42,12.2-12.06
					c1.11-0.92,2.24-1.81,3.36-2.71c0.45-0.36,0.91-0.71,1.36-1.07c-0.97,0.75-0.98,0.77-0.06,0.06c3.23-2.48,6.35-4.99,9.46-7.62
					c6.73-5.69,6.66-18.7,0-24.38c-8.57-7.31-16.9-14.93-24.96-22.8c-7.52-7.35-15.9-15.7-20.89-23.43
					c-5.66-8.75-7.79-16.63-11.1-26.96c-3.14-9.79-7.13-20.22-6.77-30.63c0.19-5.63-4.5-10.59-9.92-11.23
					C116.13,128.88,111.3,132.25,109.41,137.76L109.41,137.76z"/>
			</g>
		</g>
	</g>
</g>
<g id="black">
	<g>
		<g>
			<g>
				<path d="M118.22,136.37c-5.69,5.51-3.83,14.06-2.6,21.07c1.23,7.02,3.21,13.76,5.31,20.56c4.3,13.94,9.11,27.68,16.37,40.39
					c6.12,10.69,14.61,20.31,24,28.25c10.2,8.62,21.2,14.8,32.74,21.3c2.62-9.69,5.25-19.37,7.87-29.06
					c-16.84,1.19-28.14,12.05-38.51,24.33c-9.83,11.64-18.94,23.96-26.99,36.91c-8.19,13.18-15.1,27.02-21.1,41.32
					c-2.75,6.55-5.18,13.2-7.72,19.83c-3.13,8.2-6.6,16.11-7,24.99c-0.26,5.9,3.99,11.67,9.28,13.79
					c5.06,2.04,12.79,1.63,16.49-3.12c3.22-4.14,5.5-7.66,7.3-12.64c1.19-3.29,2.18-6.66,3.27-9.99c1.88-5.76,4.54-12.82,6.4-17.04
					c5.44-12.36,11.55-24.43,18.53-36.01c3.42-5.67,7.03-11.21,10.84-16.62c4.1-5.83,6.4-8.86,10.56-13.92
					c3.83-4.66,7.75-9.32,12.05-13.55c0.97-0.95,1.98-1.85,2.98-2.77c2.57-2.36-0.98,0.29,1.77-1.3c1.37-0.8,2.71-1.66,4.09-2.45
					c0.48-0.28,4.37-2.1,1.91-1.12c6.23-2.48,11.78-7.71,11.45-15.04c-0.3-6.68-4.59-13.45-11.45-15.04
					c-2.2-0.51-6.04-1.95-6.94-2.32c-0.91-0.38-4.64-2.14-6.65-3.19c-4.36-2.27-9.55-5.67-12.76-8.21
					c-6.98-5.53-15.63-14.75-20.69-21.8c-7.16-9.99-12.02-21.5-16.76-32.78c-2.64-6.27-5.4-12.53-7.78-18.91
					c-2.25-6.04-3.43-13.21-9.33-16.76C122.95,134.15,120.03,134.62,118.22,136.37L118.22,136.37z"/>
			</g>
		</g>
		<g>
			<g>
				<path d="M386.14,129.74c-3.47,5.65-4.71,12.26-6.61,18.54c-1.91,6.33-4.83,12.15-7.34,18.24c-4.74,11.51-10.67,22.7-17.75,32.95
					c-12.53,18.14-30.23,33.15-50.58,41.97c-4.27,1.85-6.77,7.44-6.77,11.8c0,5.29,2.81,8.76,6.77,11.8
					c19.3,14.84,37.57,31.09,51.55,51.19c3.4,4.9,6.58,9.95,9.44,15.18c2.92,5.33,4.93,9.54,6.61,14.01
					c2.06,5.48,3.74,11.11,4.95,16.85c0.29,1.36,0.54,2.73,0.78,4.1c0.17,0.99,0.52,3.76,0.22,1.36c0.54,4.24,1.12,8.39,2.01,12.57
					c1.68,7.84,10.21,12.56,17.69,11.55c8.26-1.11,13.4-7.73,13.98-15.84c1.02-14.26-4.9-29.13-10.73-41.86
					c-5.6-12.23-13.22-23.32-21.63-33.77c-16.96-21.06-38.43-38.6-58.3-56.82c-0.92,7.16-1.84,14.31-2.77,21.47
					c24.39-11.31,43.96-29.48,58.41-52.03c7.67-11.96,13.63-25.11,17.86-38.67c2.11-6.79,3.04-13.92,4.44-20.88
					c1.47-7.29,2.96-14.55,1.49-21.94C398.53,124.94,389.32,124.56,386.14,129.74L386.14,129.74z"/>
			</g>
		</g>
		<g>
			<g>
				<path d="M314.32,110.5c-7.16-8.33-19.21-7.39-27.72-1.75c-9.23,6.11-12.95,16.05-16.98,25.84
					c-4.54,11.04-9.06,21.86-11.67,33.56c-2.53,11.32-3.9,22.94-4.62,34.51c-1.41,22.9-0.52,45.87-2.45,68.74
					c-0.91,10.84-3.6,21.38-6.14,31.94c-2.71,11.28-5.82,22.49-9.19,33.59c-3.47,11.44-6.43,19.53-13.33,29.46
					c-0.63,0.91-1.28,1.83-1.96,2.71c1.62-2.1-1.28,1.45-1.61,1.83c-1.83,2.09-3.74,4.11-5.73,6.04c-1,0.97-2.02,1.91-3.06,2.84
					c-0.42,0.37-4.2,3.57-2.61,2.21c1.31-1.12-1.86-0.17,0.42-0.27c1.92-0.09,4.66-0.93,1.09-0.46
					c-7.23,0.95-14.52,4.56-16.31,12.42c-1.63,7.18,1.02,15.42,7.77,19.1c13.36,7.28,25.97-1.53,35.32-10.83
					c7.82-7.78,14.54-17.16,19.29-27.12c9.74-20.42,14.35-43.49,18.51-65.61c4.38-23.32,4.74-47.17,4.3-70.81
					c-0.4-21.94-1.54-44.4,2.52-66.08c2.17-11.59,5.43-23.66,10.28-34.43c3.69-8.2,9.19-16.41,19.14-16.05
					C315.78,122.08,317.86,114.62,314.32,110.5L314.32,110.5z"/>
			</g>
		</g>
	</g>
</g>
</svg>
