<?xml version="1.0" encoding="utf-8"?>
<!-- Generator: Adobe Illustrator 23.0.0, SVG Export Plug-In . SVG Version: 6.00 Build 0)  -->
<svg version="1.1" xmlns="http://www.w3.org/2000/svg" xmlns:xlink="http://www.w3.org/1999/xlink" x="0px" y="0px"
	 viewBox="0 0 512 512" style="enable-background:new 0 0 512 512;" xml:space="preserve">
<style type="text/css">
	.st0{fill:#FFFFFF;}
	.st1{fill:#FF0000;}
</style>
<g id="circle">
	<g>
		<path class="st0" d="M344.21,60C294.2,37.29,235.8,41.54,182.77,55.87c-26.44,7.14-52.69,16.9-74.39,33.62
			c-25.2,19.42-42.97,47.45-53.27,77.55s-13.46,62.26-12.96,94.07c0.79,49.69,11.63,101.74,44.5,139.01
			c24.22,27.47,58.33,44.47,93.28,55.42c27.56,8.63,56.36,13.91,85.23,13.22c34.71-0.83,69.04-10.38,99.81-26.48
			c22.97-12.02,44.37-28.03,59.14-49.34c12.58-18.14,19.86-39.33,27-60.22c5.19-15.19,10.39-30.42,13.85-46.1
			c11.12-50.43,3.23-104.82-21.77-150.01c-12.35-22.34-29.05-42.73-50.6-56.41s-48.27-20.17-73.18-14.6"/>
		<g>
			<path d="M347.57,54.25c-21.68-11.15-44.67-17.03-68.96-18.52c-24.24-1.49-48.66,0.96-72.45,5.59
				c-45.44,8.84-92.52,25.06-123.8,60.86c-31.76,36.36-45.14,84.38-47.92,131.78c-2.63,44.95,1.81,91.95,20.94,133.19
				c19.21,41.42,54.56,69.56,96.02,86.95c45.78,19.2,96.22,28.24,145.55,20.32c45.54-7.31,93.23-28.58,124.3-63.5
				c16.25-18.27,26.08-40.26,34.25-63.06c8.44-23.57,17.08-47.46,20.99-72.28c7.48-47.42-0.11-96.74-22.37-139.37
				c-21.1-40.43-56.48-75.39-103.41-81.37c-11.34-1.44-22.66-0.85-33.83,1.59c-11.99,2.62-6.89,20.82,5.06,18.35
				c41.37-8.56,80.42,18.03,102.93,50.81c24.4,35.54,36.42,78.85,35.44,121.82c-0.52,22.86-5.53,44.74-12.52,66.44
				c-6.97,21.63-13.71,44.03-24.83,63.96c-20.95,37.55-61.81,60.7-101.85,72.95c-45.41,13.89-92.02,10.76-137.11-2.87
				c-39.11-11.82-77.81-31.86-101.31-66.47c-22.92-33.76-30.84-75.33-32.14-115.49c-1.46-44.77,4.71-90.93,28.2-129.85
				c10.48-17.35,24.22-32.83,41.1-44.17c18.33-12.32,39.07-20.12,60.22-26.06c42.98-12.08,86.56-16.76,130.7-8.49
				c10.81,2.02,21.41,5.11,31.67,9.05C349.48,69.12,354.23,57.68,347.57,54.25L347.57,54.25z"/>
		</g>
	</g>
</g>
<g id="red">
	<g>
		<g>
			<g>
				<path class="st1" d="M159.2,142.49c-2.36,5.38-2.69,10.54-3.79,16.25c-1.16,6.01-2.86,11.87-4.97,17.61
					c-4.09,11.16-9.59,21.96-15.27,32.39c-11.4,20.97-27.49,36.41-48.24,48.03c-7.62,4.27-0.92,15.25,6.77,11.58
					c23.22-11.1,40.6-30.73,52.27-53.3c5.92-11.45,12.26-23.16,16.32-35.44c3.62-10.96,7.32-26.53,1.29-37.12
					C162.71,140.98,159.98,140.7,159.2,142.49L159.2,142.49z"/>
			</g>
		</g>
		<g>
			<g>
				<path class="st1" d="M89.92,258.59c0.59,0,1.18,0,1.77,0c0.81,1.05,1.61,2.1,2.42,3.14c-0.07-0.26-0.14-0.52-0.22-0.78
					c-2.94,2.26-5.88,4.52-8.81,6.78c9.5,6.84,17.26,15.16,24.28,24.48c6.88,9.14,14.26,17.92,20.73,27.36
					c6.56,9.58,11.39,19.8,15.68,30.56c2.24,5.61,4.33,11.3,5.8,17.16c1.46,5.82,1.31,12.08,3.86,17.53
					c3.09,6.62,11.59,3.47,13.79-1.8c2.53-6.05,0.26-14.13-1.35-20.23c-1.62-6.14-3.94-12.08-6.39-17.94
					c-5.02-12.01-10.3-23.56-17.81-34.25c-7.14-10.17-15.09-19.81-23.14-29.27c-8.36-9.82-17.75-18.25-29.4-23.97
					c-9.85-4.84-12.57,12.88-1.43,10.97c2.51-0.43,4.68-1.89,5.74-4.22C97.09,260.46,93.7,256.67,89.92,258.59L89.92,258.59z"/>
			</g>
		</g>
	</g>
	<g>
		<g>
			<path class="st1" d="M360.92,138.02c-2.93,11.59,0.04,23.85,2.16,35.36c2.12,11.52,5.49,22.95,11.19,33.25
				c5.71,10.31,13.92,19.19,21.8,27.86c8.64,9.5,17.73,18.52,27.27,27.12c0-4.04,0-8.08,0-12.12
				c-19.84,15.87-36.57,34.54-47.6,57.55c-11.5,23.96-21,49.32-22.67,76.06c-0.66,10.55,15.7,10.49,16.41,0
				c1.62-24.21,10.73-47.75,21.3-69.36c5.03-10.28,10.94-19.96,18.6-28.5c7.9-8.82,17.01-16.09,26.09-23.63
				c3.4-2.82,3.26-9.29,0-12.12c-8.5-7.39-16.74-15.08-24.67-23.08c-7.77-7.84-15.9-15.94-21.82-25.31
				c-5.64-8.91-8.62-18.88-11.41-28.96c-2.89-10.43-6.69-21.66-5.4-32.59C372.92,133.08,362.47,131.89,360.92,138.02L360.92,138.02z
				"/>
		</g>
	</g>
	<g>
		<g>
			<g>
				<path class="st1" d="M299.23,127.76c-6.1-6.18-14.93-4.79-21.91-0.45c-8.22,5.12-11.98,13.56-14.86,22.43
					c-3.16,9.73-6.83,19.37-9.64,29.21c-2.93,10.26-3.35,21.01-3.35,31.61c0,21.62-0.22,43.43-3.51,64.86
					c-3.24,21.06-11.39,41.77-18.86,61.63c-4.17,11.08-9.02,21.88-14.49,32.37c-3.22,6.18-8.77,20.54-17.17,21.12
					c-10,0.69-10.07,16.35,0,15.66c20-1.37,28.47-24.48,35.55-40.12c8.62-19.03,15.51-39.04,21.26-59.12
					c5.94-20.74,8.87-42.45,9.71-63.97c0.81-20.71-2.11-42.91,4.28-62.91c3.45-10.78,6.81-21.93,11.27-32.34
					c1.92-4.49,4.53-8.11,9.05-10.24c2.08-0.98,4.3-1.19,6.45-1.92c2.01-0.69,3.71-1.9,5.59-2.82
					C300.47,131.85,300.58,129.13,299.23,127.76L299.23,127.76z"/>
			</g>
		</g>
		<g>
			<g>
				<path class="st1" d="M277.5,145.66c7.09-2.51,13.03-7.08,19.87-10.18c5.67-2.57,13.47-6.25,19.8-3.89
					c13.8,5.15-3.26,29.97-7.29,37.07c-7.35,12.98-15.71,24.99-25.26,36.43c-4.75,5.69-9.51,11.35-14.59,16.75
					c-2.73,2.91-5.53,5.76-8.38,8.54c-2.86,2.8-6.52,5.11-8.37,8.68c-2.49,4.84,1.82,12.98,7.99,10.4
					c6.38-2.67,11.37-9.2,16.14-14.19c5.12-5.36,10.03-10.92,14.72-16.66c8.97-10.99,16.9-23.13,24.2-35.29
					c3.67-6.1,7.14-12.34,10.31-18.72c3.23-6.49,6.58-13.26,7.49-20.53c1.69-13.45-6.9-25.42-20.98-25.3
					c-7.56,0.06-15.17,2.96-21.74,6.52c-6.92,3.75-14.05,8.39-17.57,15.61C272.72,143.22,274.63,146.67,277.5,145.66L277.5,145.66z"
					/>
			</g>
		</g>
	</g>
	<g>
		<g>
			<path class="st1" d="M256.88,112.45c13.24-2.12,19.21-15.89,21.85-27.53c-2.16,1.65-4.33,3.3-6.49,4.94
				c1.34,0.1,4.19,2.62,5.46,3.33c2.07,1.15,4.16,2.24,6.27,3.3c4.48,2.25,8.88,4.63,13.45,6.69c4.24,1.92,8.56,3.68,12.94,5.26
				c4.72,1.69,9.21,3.66,14.25,2.72c4.07-0.76,5.8-6.97,2.54-9.64c-3.72-3.04-8.08-3.58-12.61-4.93c-4.79-1.43-9.53-3.08-14.16-4.98
				c-4.47-1.83-8.75-3.93-12.87-6.44c-3.99-2.43-7.73-5.8-11.88-7.85c-4.96-2.46-9.46,0.66-10.13,5.82
				c-1.18,9.09-4.67,18.14-11.45,24.46C251.73,109.75,254.25,112.87,256.88,112.45L256.88,112.45z"/>
		</g>
	</g>
</g>
<g id="black">
	<g>
		<g>
			<path d="M365.51,138.39c-1.88,6.21-0.04,13.04,1.46,19.18c1.69,6.9,4,13.61,6.28,20.34c4.36,12.9,9.25,25.63,16.56,37.19
				c12.96,20.5,32.59,34.62,54.2,44.81c0.62-4.72,1.23-9.44,1.85-14.17c-13.4,2-22.9,12.95-31.17,22.77
				c-9.17,10.89-17.63,22.41-25.16,34.5c-7.45,11.95-13.99,24.47-19.57,37.41c-2.96,6.86-5.67,13.82-8.27,20.83
				c-2.64,7.11-5.7,14.31-7.22,21.76c-1.63,7.99,9.38,13.57,13.71,5.78c3.44-6.18,5.3-13.04,7.58-19.7
				c2.18-6.39,4.62-12.68,7.33-18.87c5.28-12.09,11.32-23.86,18.15-35.14c6.65-10.99,14.03-21.55,22.17-31.48
				c7.28-8.87,15.17-19.35,26.58-22.9c7.34-2.29,7.38-12.67,0-14.95c-20.24-6.24-37.76-21.4-49.74-38.51
				c-7.12-10.16-11.83-21.74-16.34-33.23c-2.38-6.05-4.79-12.09-6.94-18.22c-2.09-5.96-3.06-12.57-6.22-18.06
				C369.48,135.53,366.21,136.07,365.51,138.39L365.51,138.39z"/>
		</g>
	</g>
	<g>
		<g>
			<path d="M154.52,138.67c-2.28,6.08-3.44,12.52-5.24,18.76c-1.82,6.28-4.26,12.35-6.63,18.43c-4.6,11.8-10.42,23.19-17.58,33.65
				c-12.99,18.97-31.14,34.72-52.22,44.02c-3.76,1.66-4.56,8.1-1.37,10.66c20.97,16.85,41.48,34.56,57.09,56.67
				c7.1,10.05,13.31,20.94,17.48,32.55c2.07,5.77,3.71,11.7,4.8,17.73c1.22,6.73,0.85,13.24,5.47,18.66
				c2.79,3.28,7.44,1.65,9.57-1.23c4.27-5.77,2.45-13.61,1.12-20.16c-1.34-6.56-3.34-12.96-5.83-19.17
				c-5.02-12.49-11.73-24.13-19.85-34.85c-17.13-22.62-39.02-41.18-60.25-59.8c-0.46,3.55-0.92,7.11-1.37,10.66
				c23.06-10.52,41.92-27.64,55.89-48.68c7.41-11.16,13.17-23.34,17.66-35.95c2.39-6.71,3.93-13.65,5.52-20.58
				c1.53-6.67,3.16-13.5,3.11-20.38C161.85,135.24,155.96,134.83,154.52,138.67L154.52,138.67z"/>
		</g>
	</g>
	<g>
		<g>
			<path d="M299.6,120.26c-7.14-5.42-16.48-3.46-23.18,1.71c-8,6.18-11.21,16.28-14.89,25.28c-8.74,21.38-12.98,43.09-13.99,66.14
				c-1,22.91,0.13,45.88-1.89,68.75c-2.01,22.71-8.5,45.56-15.06,67.34c-3.41,11.33-7.82,22.14-14.87,31.73
				c-3.19,4.34-6.95,8.34-10.92,11.98c-1.54,1.41-3.47,3.58-5.51,4.34c-1.14,0.43-6.72-0.25-2.77,0.61
				c-3.13-0.68-7.03,0.91-7.73,4.39c-1,4.97,0.88,9.99,6.05,11.71c4.72,1.57,10.14-0.08,14.17-2.76
				c8.74-5.81,16.05-14.71,21.77-23.39c12.19-18.51,16.77-41.23,21.59-62.53c5.34-23.63,7.42-47.45,7.29-71.65
				c-0.13-23.45-1.37-47.32,2.54-70.55c2.17-12.9,6.12-25.49,11.02-37.6c3.92-9.68,11.27-22.57,23.81-19.41
				C300.93,127.33,302.48,122.45,299.6,120.26L299.6,120.26z"/>
		</g>
	</g>
</g>
</svg>
